<svg version="1.2" xmlns="http://www.w3.org/2000/svg" viewBox="0 0 259 251" width="259" height="251">
	<title>logo-estudio-cactus-svg</title>
	<style>
		.s0 { fill: #333333 } 
		.s1 { fill: #365100 } 
		.s2 { fill: #6f9e00 } 
		.s3 { fill: #93d100 } 
	</style>
	<g id="Layer">
		<path id="Layer" fill-rule="evenodd" class="s0" d="m1036.2 89.3c5.5-0.1 10.5 3.2 12.7 8.3 2.1 5.1 1 11-2.9 14.9-3.9 4-9.8 5.1-14.9 3-5.1-2.1-8.5-7-8.5-12.6 0-7.5 6.1-13.6 13.6-13.6zm0 24.2c4.3 0.2 8.3-2.4 10-6.3 1.8-4 0.9-8.6-2.1-11.7-3-3.1-7.6-4.1-11.6-2.4-4 1.6-6.7 5.5-6.7 9.8 0 2.8 1 5.5 3 7.5 1.9 2 4.6 3.1 7.4 3.1zm-0.2-8.3l-1 0.1v4.9h-3.9v-14.7h6.2c1.3 0 2.5 0.5 3.5 1.4 0.9 0.9 1.5 2.1 1.5 3.5 0 1.7-1 3.4-2.6 4.2l2.8 5.6h-4.2zm0.4-3.1c0.7 0.1 1.4-0.3 1.7-0.8 0.4-0.6 0.4-1.4 0-1.9-0.3-0.6-1-0.9-1.7-0.9h-1.5v3.6z"/>
		<path id="Layer" fill-rule="evenodd" class="s1" d="m239.4 250.2l-207.7-11.1-31.7-89.1z"/>
		<path id="Layer" fill-rule="evenodd" class="s2" d="m257.9 250.2l-164.3-68.9-14-109.3z"/>
		<path id="Layer" fill-rule="evenodd" class="s3" d="m257.9 240.1l-122.8-122.7 15.1-116.8z"/>
		<g id="Layer">
			<g id="Layer">
				<path id="Layer" fill-rule="evenodd" class="s0" d="m404 58.9h-46.1q0.4 11.4 6 17.5 5.7 6.1 16.1 6.1c7.4 0 14.5-2.6 20-7.5l3 6c-3 2.7-6.5 4.7-10.2 6-4.1 1.5-8.4 2.3-12.8 2.3q-13.9 0-22-8.5-8.1-8.4-8-23c-0.1-5.8 1.1-11.5 3.6-16.6 2.2-4.6 5.7-8.5 10-11.2 4.5-2.7 9.7-4 14.9-3.9q11.9-0.1 18.7 7.7 6.8 7.8 6.8 21.7zm-39.6-21q-5.2 5.5-6.3 15.4h38.8q-0.2-10-5-15.5-4.7-5.5-13.4-5.5-8.8 0-14.1 5.6z"/>
				<path id="Layer" fill-rule="evenodd" class="s0" d="m428.7 81.1l2.9-5.8c2.9 2.4 6.2 4.3 9.8 5.7 3.6 1.1 7.4 1.7 11.3 1.6q7.4 0.1 11.3-2.6c2.3-1.5 3.7-3.9 4-6.6 0.2-2.7-0.7-5.4-2.6-7.3q-2.7-2.4-8.4-3.7l-10.3-2.3q-7.4-1.8-11.6-6.1c-2.8-2.7-4.3-6.4-4.2-10.3-0.2-5 2.1-9.7 6.1-12.8q6.2-4.9 16.4-4.9c4.1 0 8.2 0.7 12 2.1 3.5 1.3 6.7 3.3 9.3 6l-2.9 5.9c-2.6-2.3-5.5-4.2-8.7-5.5-3.1-1.2-6.4-1.8-9.6-1.8q-6.9 0-10.8 2.8c-2.2 1.6-3.6 4.1-3.9 6.8-0.3 2.7 0.6 5.4 2.4 7.4q2.5 2.5 7.6 3.7l10.4 2.6q16.6 3.7 16.6 16.3c0.1 4.9-2.3 9.6-6.3 12.4q-6.4 4.6-17.2 4.6-14.4 0-23.6-8.2z"/>
				<path id="Layer" fill-rule="evenodd" class="s0" d="m534.5 82.4l-0.4 6.4q-2.9 0.4-5.9 0.4-10.3 0-15.5-5.6-5.3-5.6-5.3-15.3v-34.6h-12v-6.1h12v-18.9h7.7v18.9h17.8v6.1h-17.8v33.6q0 7.7 3.5 11.6 3.6 3.9 10.5 3.9 2.7 0 5.4-0.4z"/>
				<path id="Layer" fill-rule="evenodd" class="s0" d="m607.3 27.6v60.8h-7.5v-10.9c-1.8 3.7-4.7 6.8-8.3 8.8-3.7 2-7.8 3.1-12.1 3q-10.8 0-16.2-6-5.5-6-5.5-17.6v-38.1h7.7v37.6q0 8.9 3.6 13.1 3.5 4.2 11.2 4.2 8.8 0 14.1-5.6 5.3-5.5 5.4-14.8v-34.5z"/>
				<g id="Layer">
					<path id="Layer" fill-rule="evenodd" class="s0" d="m691.8 0v88.5h-7.7v-11.8c-1.7 4-4.5 7.2-8.1 9.4-3.9 2.2-8.4 3.3-12.8 3.2-5.1 0.1-10-1.3-14.2-4-4.2-2.7-7.5-6.6-9.6-11.1-2.3-5.3-3.5-11-3.4-16.8-0.1-5.7 1.1-11.3 3.4-16.5 4.2-9.3 13.6-15.1 23.8-14.9 4.4-0.1 8.9 1 12.8 3.2 3.6 2.2 6.4 5.5 8.1 9.4v-38.6zm-12.8 76.1q5.2-6.5 5.2-18.4 0-11.9-5.2-18.4-5.1-6.5-14.7-6.6-9.5 0-14.9 6.5-5.3 6.5-5.3 18.3 0 11.8 5.3 18.5 5.3 6.6 14.8 6.6 9.5 0 14.8-6.5z"/>
					<path id="Layer" class="s0" d="m723.3 1.8h10v9.7h-10zm1.1 86.6v-60.9h7.7l-0.1 60.9z"/>
					<path id="Layer" fill-rule="evenodd" class="s0" d="m774.3 85.4c-4.3-2.6-7.7-6.5-9.9-11-4.7-10.6-4.7-22.7 0-33.4 2.2-4.5 5.6-8.3 9.9-11 9.1-5.2 20.3-5.2 29.4 0 4.3 2.6 7.7 6.5 9.9 11 4.6 10.7 4.6 22.8 0 33.4-2.2 4.6-5.6 8.4-9.9 11-9.1 5.2-20.3 5.2-29.4 0zm34.8-27.7q0-11.8-5.3-18.4-5.4-6.6-14.8-6.6-9.5 0-14.8 6.6-5.3 6.6-5.3 18.4 0 12 5.2 18.4 5.1 6.5 14.8 6.4 9.7 0 14.9-6.4 5.3-6.4 5.3-18.4z"/>
				</g>
			</g>
			<g id="Layer">
				<path id="Layer" fill-rule="evenodd" class="s0" d="m351.4 116.4c38.4 0 55.4 24.7 59.6 43.1l-27 8.5c-2-8.9-10.1-23.8-32.6-23.8-17.2 0-36.5 12.2-36.5 39.1 0 24 17.7 38 36.8 38 22.2 0 31.1-14.8 33.6-24l27.3 7.8c-4.1 17.6-21.1 44.7-60.9 44.7-36.8 0-66.4-26.5-66.4-66.4 0-39.9 30.3-67 66.1-67z"/>
				<path id="Layer" fill-rule="evenodd" class="s0" d="m502.7 221.1h-49.5l-9.2 26h-30l48.2-128h33l47.7 128h-31zm-40.1-26h31.1l-15.4-44.2z"/>
				<path id="Layer" fill-rule="evenodd" class="s0" d="m544.4 183.4c0-39.9 30.4-67 66.1-67 38.5 0 55.5 24.7 59.6 43.1l-26.9 8.5c-2-8.9-10.1-23.8-32.7-23.8-17.1 0-36.5 12.2-36.5 39.1 0 24 17.7 38 36.9 38 22.2 0 31-14.8 33.6-24l27.2 7.8c-4.1 17.6-21.1 44.7-60.8 44.7-36.9 0-66.5-26.5-66.5-66.4z"/>
				<path id="Layer" fill-rule="evenodd" class="s0" d="m747 146.3v100.8h-28.5v-100.8h-39.4v-27.2h107.5v27.2z"/>
				<path id="Layer" fill-rule="evenodd" class="s0" d="m803.8 200.9v-81.8h28.5v79.4c0 15.6 8.7 23.3 22.2 23.3 13.6 0 22.2-7.7 22.2-23.3v-79.4h28.6v81.8c0 32.1-22.6 49.1-50.8 49.1-28.2 0-50.7-17-50.7-49.1z"/>
				<path id="Layer" fill-rule="evenodd" class="s0" d="m994.5 157.7c-0.9-6-5.8-16-21.3-16-10.7 0-17.5 6.6-17.5 13.7 0 6.1 3.7 10.6 12.6 12.3l17.2 3.2c24.3 4.5 37 20.2 37 38.5 0 20-16.8 40.4-47.4 40.4-35.4 0-50.5-22.9-52.3-41l26.2-6.3c1 11.8 9 22 26.5 22 11.2 0 18.1-5.4 18.1-13.3 0-6.5-5.3-11.2-13.8-12.9l-17.5-3.2c-21.7-4.2-34.8-18.6-34.8-37.6 0-24.2 21.3-41.2 45.8-41.2 32 0 44.1 19.2 46.8 34.2z"/>
			</g>
		</g>
	</g>
</svg>